<svg xmlns="http://www.w3.org/2000/svg" viewBox="0 0 64 64" role="img" aria-label="DSM Deals Hub">
  <defs>
    <linearGradient id="bg" x1="0" y1="0" x2="1" y2="1">
      <stop offset="0%" stop-color="#487657"/>
      <stop offset="100%" stop-color="#274637"/>
    </linearGradient>
    <linearGradient id="glow" x1="0" y1="0" x2="1" y2="1">
      <stop offset="0%" stop-color="#e7a172" stop-opacity="0.95"/>
      <stop offset="100%" stop-color="#cf7243" stop-opacity="0.12"/>
    </linearGradient>
  </defs>
  <rect width="64" height="64" rx="18" fill="url(#bg)"/>
  <rect x="7.5" y="7.5" width="49" height="49" rx="14" fill="none" stroke="#fff9f4" stroke-opacity="0.18"/>
  <circle cx="47" cy="17" r="8" fill="url(#glow)"/>
  <path d="M17 45V19h8.6c5.9 0 9.6 3.1 9.6 8.1s-3.7 8.1-9.6 8.1H22V45h-5zm5-14h3.4c3.2 0 4.9-1.4 4.9-3.9 0-2.5-1.7-3.9-4.9-3.9H22v7.8z" fill="#fff8f1"/>
  <path d="M38 45V19h5v10h9V19h5v26h-5V33h-9v12h-5z" fill="#fff8f1"/>
</svg>
