<svg xmlns="http://www.w3.org/2000/svg" viewBox="0 0 512 512" fill="none">
  <title>Beaverdale</title>

  <defs>
    <linearGradient id="bg" x1="92" y1="70" x2="420" y2="446" gradientUnits="userSpaceOnUse">
      <stop offset="0" stop-color="#f7f1df"/>
      <stop offset="1" stop-color="#eef3de"/>
    </linearGradient>
    <linearGradient id="sage" x1="124" y1="124" x2="376" y2="388" gradientUnits="userSpaceOnUse">
      <stop offset="0" stop-color="#dfe9c8"/>
      <stop offset="1" stop-color="#b9d09f"/>
    </linearGradient>
    <linearGradient id="green" x1="142" y1="100" x2="384" y2="414" gradientUnits="userSpaceOnUse">
      <stop offset="0" stop-color="#5f8258"/>
      <stop offset="1" stop-color="#476a4d"/>
    </linearGradient>
    <linearGradient id="orange" x1="180" y1="112" x2="386" y2="388" gradientUnits="userSpaceOnUse">
      <stop offset="0" stop-color="#f6b46b"/>
      <stop offset="1" stop-color="#cf7243"/>
    </linearGradient>
  </defs>
  <ellipse cx="256" cy="430" rx="184" ry="28" fill="#dfe7cc" opacity="0.7"/>
  <path d="M138 332c22-34 54-60 118-60s96 26 118 60" fill="#dbe7c4" stroke="#476a4d" stroke-width="16" stroke-linejoin="round"/>
  <path d="M176 332v-54h156v54" fill="#f7f1df" stroke="#476a4d" stroke-width="16" stroke-linejoin="round"/>
  <path d="M188 278c0-36 30-64 68-64s68 28 68 64" fill="#f7f1df" stroke="#476a4d" stroke-width="16" stroke-linejoin="round"/>
  <path d="M152 272c12-34 36-54 64-62" stroke="#cf7243" stroke-width="12" stroke-linecap="round"/>
  <path d="M360 272c-12-34-36-54-64-62" stroke="#cf7243" stroke-width="12" stroke-linecap="round"/>
  <path d="M250 192c18 0 32 14 32 32s-14 32-32 32-32-14-32-32 14-32 32-32Z" fill="#cf7243" opacity="0.9"/>
  <path d="M250 224l-14 18h28l-14-18Z" fill="#476a4d"/>
  <path d="M188 362c36-20 60-28 96-28s60 8 96 28" stroke="#3f6a50" stroke-width="12" stroke-linecap="round"/>

</svg>
