<svg xmlns="http://www.w3.org/2000/svg" viewBox="0 0 512 512" fill="none">
  <title>South Side</title>

  <defs>
    <linearGradient id="bg" x1="92" y1="70" x2="420" y2="446" gradientUnits="userSpaceOnUse">
      <stop offset="0" stop-color="#f7f1df"/>
      <stop offset="1" stop-color="#eef3de"/>
    </linearGradient>
    <linearGradient id="sage" x1="124" y1="124" x2="376" y2="388" gradientUnits="userSpaceOnUse">
      <stop offset="0" stop-color="#dfe9c8"/>
      <stop offset="1" stop-color="#b9d09f"/>
    </linearGradient>
    <linearGradient id="green" x1="142" y1="100" x2="384" y2="414" gradientUnits="userSpaceOnUse">
      <stop offset="0" stop-color="#5f8258"/>
      <stop offset="1" stop-color="#476a4d"/>
    </linearGradient>
    <linearGradient id="orange" x1="180" y1="112" x2="386" y2="388" gradientUnits="userSpaceOnUse">
      <stop offset="0" stop-color="#f6b46b"/>
      <stop offset="1" stop-color="#cf7243"/>
    </linearGradient>
  </defs>
  <ellipse cx="256" cy="430" rx="184" ry="28" fill="#dfe7cc" opacity="0.7"/>
  <path d="M136 344c40-10 76-16 120-16s80 6 120 16" stroke="#476a4d" stroke-width="18" stroke-linecap="round"/>
  <path d="M154 336c30-24 54-42 78-50 24 8 48 26 78 50 30-24 54-42 78-50" fill="#dbe7c4" stroke="#476a4d" stroke-width="16" stroke-linejoin="round"/>
  <path d="M184 296h144" stroke="#cf7243" stroke-width="12" stroke-linecap="round"/>
  <path d="M176 328c20-38 38-60 60-72 22 12 40 34 60 72" stroke="#3f6a50" stroke-width="12" stroke-linecap="round"/>
  <path d="M200 242h112" stroke="#476a4d" stroke-width="16" stroke-linecap="round"/>
  <path d="M206 242c18-32 36-48 50-54 14 6 32 22 50 54" fill="#f7f1df" stroke="#476a4d" stroke-width="14" stroke-linejoin="round"/>
  <circle cx="358" cy="148" r="10" fill="#cf7243"/>

</svg>
