<svg xmlns="http://www.w3.org/2000/svg" viewBox="0 0 512 512" fill="none">
  <title>Waukee</title>

  <defs>
    <linearGradient id="bg" x1="92" y1="70" x2="420" y2="446" gradientUnits="userSpaceOnUse">
      <stop offset="0" stop-color="#f7f1df"/>
      <stop offset="1" stop-color="#eef3de"/>
    </linearGradient>
    <linearGradient id="sage" x1="124" y1="124" x2="376" y2="388" gradientUnits="userSpaceOnUse">
      <stop offset="0" stop-color="#dfe9c8"/>
      <stop offset="1" stop-color="#b9d09f"/>
    </linearGradient>
    <linearGradient id="green" x1="142" y1="100" x2="384" y2="414" gradientUnits="userSpaceOnUse">
      <stop offset="0" stop-color="#5f8258"/>
      <stop offset="1" stop-color="#476a4d"/>
    </linearGradient>
    <linearGradient id="orange" x1="180" y1="112" x2="386" y2="388" gradientUnits="userSpaceOnUse">
      <stop offset="0" stop-color="#f6b46b"/>
      <stop offset="1" stop-color="#cf7243"/>
    </linearGradient>
  </defs>
  <ellipse cx="256" cy="430" rx="184" ry="28" fill="#dfe7cc" opacity="0.7"/>
  <path d="M132 350c34-44 74-68 124-72 50 4 90 28 124 72" fill="#dbe7c4" stroke="#476a4d" stroke-width="16" stroke-linejoin="round"/>
  <path d="M160 338c28-28 56-46 96-52 40 6 68 24 96 52" stroke="#476a4d" stroke-width="18" stroke-linecap="round"/>
  <path d="M246 174c0-24 18-42 40-42s40 18 40 42c0 18-8 32-20 44-12 12-20 24-20 24s-8-12-20-24c-12-12-20-26-20-44Z" fill="url(#orange)" stroke="#476a4d" stroke-width="16" stroke-linejoin="round"/>
  <path d="M180 362c26-12 50-18 76-18s50 6 76 18" stroke="#3f6a50" stroke-width="12" stroke-linecap="round"/>
  <path d="M176 308h48M288 308h48" stroke="#cf7243" stroke-width="12" stroke-linecap="round"/>

</svg>
