<svg xmlns="http://www.w3.org/2000/svg" viewBox="0 0 512 512" fill="none">
  <title>Altoona</title>

  <defs>
    <linearGradient id="bg" x1="92" y1="70" x2="420" y2="446" gradientUnits="userSpaceOnUse">
      <stop offset="0" stop-color="#f7f1df"/>
      <stop offset="1" stop-color="#eef3de"/>
    </linearGradient>
    <linearGradient id="sage" x1="124" y1="124" x2="376" y2="388" gradientUnits="userSpaceOnUse">
      <stop offset="0" stop-color="#dfe9c8"/>
      <stop offset="1" stop-color="#b9d09f"/>
    </linearGradient>
    <linearGradient id="green" x1="142" y1="100" x2="384" y2="414" gradientUnits="userSpaceOnUse">
      <stop offset="0" stop-color="#5f8258"/>
      <stop offset="1" stop-color="#476a4d"/>
    </linearGradient>
    <linearGradient id="orange" x1="180" y1="112" x2="386" y2="388" gradientUnits="userSpaceOnUse">
      <stop offset="0" stop-color="#f6b46b"/>
      <stop offset="1" stop-color="#cf7243"/>
    </linearGradient>
  </defs>
  <ellipse cx="256" cy="430" rx="184" ry="28" fill="#dfe7cc" opacity="0.7"/>
  <path d="M128 350c34-46 74-82 128-82s94 36 128 82" stroke="#476a4d" stroke-width="18" stroke-linecap="round"/>
  <path d="M154 338c28-30 54-48 82-54 28 6 54 24 82 54" fill="#dbe7c4" stroke="#476a4d" stroke-width="16" stroke-linejoin="round"/>
  <path d="M222 204c0-25 18-45 40-45s40 20 40 45c0 17-8 35-20 48-12 13-20 26-20 26s-8-13-20-26c-12-13-20-31-20-48Z" fill="url(#orange)" stroke="#476a4d" stroke-width="16" stroke-linejoin="round"/>
  <path d="M168 362c28-12 54-18 88-18s60 6 88 18" stroke="#cf7243" stroke-width="12" stroke-linecap="round"/>
  <circle cx="356" cy="142" r="12" fill="#cf7243" opacity="0.95"/>

</svg>
