<svg xmlns="http://www.w3.org/2000/svg" viewBox="0 0 512 512" fill="none">
  <title>Clive</title>

  <defs>
    <linearGradient id="bg" x1="92" y1="70" x2="420" y2="446" gradientUnits="userSpaceOnUse">
      <stop offset="0" stop-color="#f7f1df"/>
      <stop offset="1" stop-color="#eef3de"/>
    </linearGradient>
    <linearGradient id="sage" x1="124" y1="124" x2="376" y2="388" gradientUnits="userSpaceOnUse">
      <stop offset="0" stop-color="#dfe9c8"/>
      <stop offset="1" stop-color="#b9d09f"/>
    </linearGradient>
    <linearGradient id="green" x1="142" y1="100" x2="384" y2="414" gradientUnits="userSpaceOnUse">
      <stop offset="0" stop-color="#5f8258"/>
      <stop offset="1" stop-color="#476a4d"/>
    </linearGradient>
    <linearGradient id="orange" x1="180" y1="112" x2="386" y2="388" gradientUnits="userSpaceOnUse">
      <stop offset="0" stop-color="#f6b46b"/>
      <stop offset="1" stop-color="#cf7243"/>
    </linearGradient>
  </defs>
  <ellipse cx="256" cy="430" rx="184" ry="28" fill="#dfe7cc" opacity="0.7"/>
  <path d="M118 332c48-36 98-54 138-54s90 18 138 54" stroke="#476a4d" stroke-width="18" stroke-linecap="round"/>
  <path d="M136 336c38-24 78-36 120-36s82 12 120 36" fill="#dbe7c4" stroke="#476a4d" stroke-width="16" stroke-linejoin="round"/>
  <path d="M166 302c20-34 42-54 72-62 30 8 52 28 72 62" fill="#f7f1df" stroke="#476a4d" stroke-width="14" stroke-linejoin="round"/>
  <path d="M216 190h80l-18 88h-44l-18-88Z" fill="#cf7243" opacity="0.92" stroke="#476a4d" stroke-width="14" stroke-linejoin="round"/>
  <path d="M188 332c20-18 42-30 68-34 26 4 48 16 68 34" stroke="#cf7243" stroke-width="12" stroke-linecap="round"/>
  <path d="M148 388c44-6 78-10 108-10s64 4 108 10" stroke="#82a18a" stroke-width="10" stroke-linecap="round" opacity="0.95"/>

</svg>
