<svg xmlns="http://www.w3.org/2000/svg" viewBox="0 0 512 512" fill="none">
  <title>Norwalk</title>

  <defs>
    <linearGradient id="bg" x1="92" y1="70" x2="420" y2="446" gradientUnits="userSpaceOnUse">
      <stop offset="0" stop-color="#f7f1df"/>
      <stop offset="1" stop-color="#eef3de"/>
    </linearGradient>
    <linearGradient id="sage" x1="124" y1="124" x2="376" y2="388" gradientUnits="userSpaceOnUse">
      <stop offset="0" stop-color="#dfe9c8"/>
      <stop offset="1" stop-color="#b9d09f"/>
    </linearGradient>
    <linearGradient id="green" x1="142" y1="100" x2="384" y2="414" gradientUnits="userSpaceOnUse">
      <stop offset="0" stop-color="#5f8258"/>
      <stop offset="1" stop-color="#476a4d"/>
    </linearGradient>
    <linearGradient id="orange" x1="180" y1="112" x2="386" y2="388" gradientUnits="userSpaceOnUse">
      <stop offset="0" stop-color="#f6b46b"/>
      <stop offset="1" stop-color="#cf7243"/>
    </linearGradient>
  </defs>
  <ellipse cx="256" cy="430" rx="184" ry="28" fill="#dfe7cc" opacity="0.7"/>
  <path d="M126 352h260" stroke="#476a4d" stroke-width="18" stroke-linecap="round"/>
  <path d="M168 352v-58h176v58" fill="#dbe7c4" stroke="#476a4d" stroke-width="16" stroke-linejoin="round"/>
  <path d="M194 294v-44h124v44" fill="#f7f1df" stroke="#476a4d" stroke-width="16" stroke-linejoin="round"/>
  <path d="M190 250l66-44 66 44" fill="#cf7243" opacity="0.88" stroke="#476a4d" stroke-width="16" stroke-linejoin="round"/>
  <path d="M178 390c22-36 48-62 78-78 30 16 56 42 78 78" stroke="#3f6a50" stroke-width="12" stroke-linecap="round"/>
  <path d="M132 348c24-10 46-14 70-14" stroke="#cf7243" stroke-width="10" stroke-linecap="round"/>
  <circle cx="360" cy="138" r="10" fill="#cf7243"/>

</svg>
