<svg xmlns="http://www.w3.org/2000/svg" viewBox="0 0 512 512" fill="none">
  <title>Prairie Trail</title>

  <defs>
    <linearGradient id="bg" x1="92" y1="70" x2="420" y2="446" gradientUnits="userSpaceOnUse">
      <stop offset="0" stop-color="#f7f1df"/>
      <stop offset="1" stop-color="#eef3de"/>
    </linearGradient>
    <linearGradient id="sage" x1="124" y1="124" x2="376" y2="388" gradientUnits="userSpaceOnUse">
      <stop offset="0" stop-color="#dfe9c8"/>
      <stop offset="1" stop-color="#b9d09f"/>
    </linearGradient>
    <linearGradient id="green" x1="142" y1="100" x2="384" y2="414" gradientUnits="userSpaceOnUse">
      <stop offset="0" stop-color="#5f8258"/>
      <stop offset="1" stop-color="#476a4d"/>
    </linearGradient>
    <linearGradient id="orange" x1="180" y1="112" x2="386" y2="388" gradientUnits="userSpaceOnUse">
      <stop offset="0" stop-color="#f6b46b"/>
      <stop offset="1" stop-color="#cf7243"/>
    </linearGradient>
  </defs>
  <ellipse cx="256" cy="430" rx="184" ry="28" fill="#dfe7cc" opacity="0.7"/>
  <path d="M132 358c42-24 72-50 100-88 26-36 48-54 76-66 28 12 50 30 76 66 28 38 58 64 100 88" stroke="#476a4d" stroke-width="18" stroke-linecap="round"/>
  <path d="M164 346c28-18 52-40 74-72 20-30 36-46 56-56 20 10 36 26 56 56 22 32 46 54 74 72" fill="#dbe7c4" stroke="#476a4d" stroke-width="16" stroke-linejoin="round"/>
  <path d="M250 148c0-18 14-32 32-32 12 0 22 6 28 16-6 20-20 34-28 42-8-8-22-22-32-26Z" fill="#cf7243" opacity="0.92" stroke="#476a4d" stroke-width="14" stroke-linejoin="round"/>
  <path d="M168 296c16-16 28-24 48-30M344 296c-16-16-28-24-48-30" stroke="#cf7243" stroke-width="12" stroke-linecap="round"/>
  <path d="M184 380c18-10 36-14 72-14s54 4 72 14" stroke="#3f6a50" stroke-width="12" stroke-linecap="round"/>

</svg>
