<svg xmlns="http://www.w3.org/2000/svg" viewBox="0 0 512 512" fill="none">
  <title>Saylorville</title>

  <defs>
    <linearGradient id="bg" x1="92" y1="70" x2="420" y2="446" gradientUnits="userSpaceOnUse">
      <stop offset="0" stop-color="#f7f1df"/>
      <stop offset="1" stop-color="#eef3de"/>
    </linearGradient>
    <linearGradient id="sage" x1="124" y1="124" x2="376" y2="388" gradientUnits="userSpaceOnUse">
      <stop offset="0" stop-color="#dfe9c8"/>
      <stop offset="1" stop-color="#b9d09f"/>
    </linearGradient>
    <linearGradient id="green" x1="142" y1="100" x2="384" y2="414" gradientUnits="userSpaceOnUse">
      <stop offset="0" stop-color="#5f8258"/>
      <stop offset="1" stop-color="#476a4d"/>
    </linearGradient>
    <linearGradient id="orange" x1="180" y1="112" x2="386" y2="388" gradientUnits="userSpaceOnUse">
      <stop offset="0" stop-color="#f6b46b"/>
      <stop offset="1" stop-color="#cf7243"/>
    </linearGradient>
  </defs>
  <ellipse cx="256" cy="430" rx="184" ry="28" fill="#dfe7cc" opacity="0.7"/>
  <path d="M140 348c36-18 66-26 116-26s80 8 116 26" stroke="#476a4d" stroke-width="18" stroke-linecap="round"/>
  <path d="M148 338c26-30 54-50 108-50s82 20 108 50" fill="#dbe7c4" stroke="#476a4d" stroke-width="16" stroke-linejoin="round"/>
  <path d="M184 302c14-48 48-82 72-90 24 8 58 42 72 90" fill="#f7f1df" stroke="#476a4d" stroke-width="16" stroke-linejoin="round"/>
  <path d="M258 180l34 34-34 34-34-34 34-34Z" fill="#cf7243" opacity="0.92" stroke="#476a4d" stroke-width="14" stroke-linejoin="round"/>
  <path d="M172 364c26-12 54-18 84-18s58 6 84 18" stroke="#3f6a50" stroke-width="12" stroke-linecap="round"/>
  <path d="M156 386h200" stroke="#82a18a" stroke-width="10" stroke-linecap="round" opacity="0.9"/>

</svg>
