<svg xmlns="http://www.w3.org/2000/svg" viewBox="0 0 512 512" fill="none">
  <title>Urbandale</title>

  <defs>
    <linearGradient id="bg" x1="92" y1="70" x2="420" y2="446" gradientUnits="userSpaceOnUse">
      <stop offset="0" stop-color="#f7f1df"/>
      <stop offset="1" stop-color="#eef3de"/>
    </linearGradient>
    <linearGradient id="sage" x1="124" y1="124" x2="376" y2="388" gradientUnits="userSpaceOnUse">
      <stop offset="0" stop-color="#dfe9c8"/>
      <stop offset="1" stop-color="#b9d09f"/>
    </linearGradient>
    <linearGradient id="green" x1="142" y1="100" x2="384" y2="414" gradientUnits="userSpaceOnUse">
      <stop offset="0" stop-color="#5f8258"/>
      <stop offset="1" stop-color="#476a4d"/>
    </linearGradient>
    <linearGradient id="orange" x1="180" y1="112" x2="386" y2="388" gradientUnits="userSpaceOnUse">
      <stop offset="0" stop-color="#f6b46b"/>
      <stop offset="1" stop-color="#cf7243"/>
    </linearGradient>
  </defs>
  <ellipse cx="256" cy="430" rx="184" ry="28" fill="#dfe7cc" opacity="0.7"/>
  <path d="M148 356h216" stroke="#476a4d" stroke-width="18" stroke-linecap="round"/>
  <path d="M168 356v-64h176v64" fill="#dbe7c4" stroke="#476a4d" stroke-width="16" stroke-linejoin="round"/>
  <path d="M190 292l42-40 42 40 42-40 42 40" fill="#f7f1df" stroke="#476a4d" stroke-width="16" stroke-linejoin="round"/>
  <circle cx="336" cy="244" r="30" fill="#cf7243" opacity="0.9" stroke="#476a4d" stroke-width="14"/>
  <path d="M336 202v84" stroke="#476a4d" stroke-width="14" stroke-linecap="round"/>
  <path d="M336 244h-28M336 244h28" stroke="#476a4d" stroke-width="14" stroke-linecap="round"/>
  <path d="M182 380c26-10 52-16 74-16s48 6 74 16" stroke="#3f6a50" stroke-width="12" stroke-linecap="round"/>

</svg>
