<svg xmlns="http://www.w3.org/2000/svg" viewBox="0 0 512 512" fill="none">
  <title>Ankeny</title>

  <defs>
    <linearGradient id="bg" x1="92" y1="70" x2="420" y2="446" gradientUnits="userSpaceOnUse">
      <stop offset="0" stop-color="#f7f1df"/>
      <stop offset="1" stop-color="#eef3de"/>
    </linearGradient>
    <linearGradient id="sage" x1="124" y1="124" x2="376" y2="388" gradientUnits="userSpaceOnUse">
      <stop offset="0" stop-color="#dfe9c8"/>
      <stop offset="1" stop-color="#b9d09f"/>
    </linearGradient>
    <linearGradient id="green" x1="142" y1="100" x2="384" y2="414" gradientUnits="userSpaceOnUse">
      <stop offset="0" stop-color="#5f8258"/>
      <stop offset="1" stop-color="#476a4d"/>
    </linearGradient>
    <linearGradient id="orange" x1="180" y1="112" x2="386" y2="388" gradientUnits="userSpaceOnUse">
      <stop offset="0" stop-color="#f6b46b"/>
      <stop offset="1" stop-color="#cf7243"/>
    </linearGradient>
  </defs>
  <ellipse cx="256" cy="430" rx="184" ry="28" fill="#dfe7cc" opacity="0.7"/>
  <path d="M150 360h212" stroke="#476a4d" stroke-width="18" stroke-linecap="round"/>
  <path d="M182 360c0-28 23-50 52-50h46c29 0 52 22 52 50" fill="#dbe7c4" stroke="#476a4d" stroke-width="16" stroke-linejoin="round"/>
  <path d="M242 120h58v40c0 12-10 22-22 22h-14c-12 0-22-10-22-22v-40Z" fill="#f7f1df" stroke="#476a4d" stroke-width="16" stroke-linejoin="round"/>
  <path d="M220 120h102l-10-28h-82l-10 28Z" fill="#cf7243" stroke="#476a4d" stroke-width="14" stroke-linejoin="round"/>
  <path d="M250 182v66" stroke="#476a4d" stroke-width="16" stroke-linecap="round"/>
  <path d="M160 320c28-20 56-30 96-30s68 10 96 30" stroke="#cf7243" stroke-width="12" stroke-linecap="round"/>
  <circle cx="372" cy="154" r="12" fill="#3f6a50"/>

</svg>
