<svg xmlns="http://www.w3.org/2000/svg" viewBox="0 0 512 512" fill="none">
  <title>Drake</title>

  <defs>
    <linearGradient id="bg" x1="92" y1="70" x2="420" y2="446" gradientUnits="userSpaceOnUse">
      <stop offset="0" stop-color="#f7f1df"/>
      <stop offset="1" stop-color="#eef3de"/>
    </linearGradient>
    <linearGradient id="sage" x1="124" y1="124" x2="376" y2="388" gradientUnits="userSpaceOnUse">
      <stop offset="0" stop-color="#dfe9c8"/>
      <stop offset="1" stop-color="#b9d09f"/>
    </linearGradient>
    <linearGradient id="green" x1="142" y1="100" x2="384" y2="414" gradientUnits="userSpaceOnUse">
      <stop offset="0" stop-color="#5f8258"/>
      <stop offset="1" stop-color="#476a4d"/>
    </linearGradient>
    <linearGradient id="orange" x1="180" y1="112" x2="386" y2="388" gradientUnits="userSpaceOnUse">
      <stop offset="0" stop-color="#f6b46b"/>
      <stop offset="1" stop-color="#cf7243"/>
    </linearGradient>
  </defs>
  <ellipse cx="256" cy="430" rx="184" ry="28" fill="#dfe7cc" opacity="0.7"/>
  <path d="M180 348h152" stroke="#476a4d" stroke-width="18" stroke-linecap="round"/>
  <path d="M216 348v-98l40-32 40 32v98" fill="#dbe7c4" stroke="#476a4d" stroke-width="16" stroke-linejoin="round"/>
  <path d="M224 250h64" stroke="#cf7243" stroke-width="12" stroke-linecap="round"/>
  <path d="M190 346c18-10 38-16 66-16s48 6 66 16" stroke="#cf7243" stroke-width="12" stroke-linecap="round"/>
  <path d="M180 212h44v28h-44z" fill="#f7f1df" stroke="#476a4d" stroke-width="14" stroke-linejoin="round"/>
  <path d="M288 212h44v28h-44z" fill="#f7f1df" stroke="#476a4d" stroke-width="14" stroke-linejoin="round"/>
  <path d="M236 174l20-26 20 26" fill="none" stroke="#cf7243" stroke-width="14" stroke-linecap="round" stroke-linejoin="round"/>
  <circle cx="360" cy="136" r="10" fill="#3f6a50"/>

</svg>
