<svg xmlns="http://www.w3.org/2000/svg" viewBox="0 0 512 512" fill="none">
  <title>East Side</title>

  <defs>
    <linearGradient id="bg" x1="92" y1="70" x2="420" y2="446" gradientUnits="userSpaceOnUse">
      <stop offset="0" stop-color="#f7f1df"/>
      <stop offset="1" stop-color="#eef3de"/>
    </linearGradient>
    <linearGradient id="sage" x1="124" y1="124" x2="376" y2="388" gradientUnits="userSpaceOnUse">
      <stop offset="0" stop-color="#dfe9c8"/>
      <stop offset="1" stop-color="#b9d09f"/>
    </linearGradient>
    <linearGradient id="green" x1="142" y1="100" x2="384" y2="414" gradientUnits="userSpaceOnUse">
      <stop offset="0" stop-color="#5f8258"/>
      <stop offset="1" stop-color="#476a4d"/>
    </linearGradient>
    <linearGradient id="orange" x1="180" y1="112" x2="386" y2="388" gradientUnits="userSpaceOnUse">
      <stop offset="0" stop-color="#f6b46b"/>
      <stop offset="1" stop-color="#cf7243"/>
    </linearGradient>
  </defs>
  <ellipse cx="256" cy="430" rx="184" ry="28" fill="#dfe7cc" opacity="0.7"/>
  <path d="M122 322c36-8 72-12 134-12s98 4 134 12" stroke="#476a4d" stroke-width="18" stroke-linecap="round"/>
  <path d="M152 322c18-42 34-64 58-82 12 18 22 28 46 28s34-10 46-28c24 18 40 40 58 82" fill="#dbe7c4" stroke="#476a4d" stroke-width="16" stroke-linejoin="round"/>
  <path d="M188 314c0-48 28-96 68-116 40 20 68 68 68 116" fill="#f7f1df" stroke="#476a4d" stroke-width="16" stroke-linejoin="round"/>
  <path d="M162 344h188" stroke="#cf7243" stroke-width="12" stroke-linecap="round"/>
  <path d="M164 370c38-14 68-22 92-22s54 8 92 22" stroke="#3f6a50" stroke-width="10" stroke-linecap="round"/>
  <circle cx="360" cy="150" r="12" fill="#cf7243"/>

</svg>
